<svg xmlns="http://www.w3.org/2000/svg" viewBox="0 0 960 560"><defs><style>.cls-1{isolation:isolate;}.cls-2,.cls-43{fill:#948dc3;}.cls-3{fill:#7c77bf;}.cls-4{fill:#0079d6;opacity:0.35;mix-blend-mode:multiply;}.cls-26,.cls-5{fill:#00fbf1;}.cls-6{fill:#1f7480;}.cls-7{fill:#063d47;}.cls-22,.cls-8{fill:#ed9986;}.cls-24,.cls-41,.cls-9{fill:#f6d273;}.cls-10{fill:#d7f3ff;}.cls-11{fill:#fffdff;}.cls-12{fill:#006796;}.cls-13{fill:#002a60;}.cls-14{fill:#90e5ff;}.cls-15{fill:#befaff;}.cls-16{fill:#67c1ff;}.cls-17{fill:#c7fdff;}.cls-18{fill:#c2fcff;}.cls-19{fill:#00faa6;}.cls-20{fill:#0096f1;}.cls-21{fill:#7afcff;}.cls-22{font-size:20px;letter-spacing:0.3em;}.cls-22,.cls-24,.cls-41,.cls-43{font-family:MPLUSCodeLatinExpanded-Bold, M PLUS Code Latin Expanded;font-weight:700;}.cls-23,.cls-25,.cls-36,.cls-37{fill:none;stroke-miterlimit:10;}.cls-23,.cls-25,.cls-37{stroke:#00fbf1;}.cls-24{font-size:60px;}.cls-24,.cls-41{letter-spacing:0.3em;}.cls-25{stroke-width:2px;}.cls-26{opacity:0.3;}.cls-27{fill:#fffca5;}.cls-28{fill:#ffaf00;}.cls-29{fill:#ff9bf4;}.cls-30{fill:#fffb80;}.cls-31{fill:#f758b6;}.cls-32{fill:#ffa8f2;}.cls-33{fill:#0b2e36;}.cls-34{fill:#8ffbf1;}.cls-35{fill:#000c2c;}.cls-36{stroke:#91fbf1;}.cls-37{stroke-width:0.5px;}.cls-38{fill:#ffc000;}.cls-39{fill:#0034b8;}.cls-40{fill:#ff7ce2;}.cls-41{font-size:12px;}.cls-42{fill:#fffb5b;}.cls-43{font-size:10.22px;letter-spacing:0.3em;}</style></defs><g class="cls-1"><g id="Capa_1" data-name="Capa 1"><rect class="cls-2" width="960" height="560"/><polygon class="cls-3" points="340 427 0 560 960 560 609 427 340 427"/><path class="cls-4" d="M605.46,460.89h-262c-3.61,0-4.27-2.32-1.56-5.05h0a17.5,17.5,0,0,1,10.79-4.71H597.07a16,16,0,0,1,10.39,4.71h0C609.93,458.57,609.07,460.89,605.46,460.89Z"/><path class="cls-5" d="M468.75,287.37V272h-8.29a28,28,0,0,0-2.29-5.76l5.8-5.8-10.9-10.89-5.72,5.72a27.41,27.41,0,0,0-5.84-2.45v-8.06H426.1v8.06a27.85,27.85,0,0,0-5.84,2.45l-5.71-5.72-10.9,10.89,5.8,5.8a27.46,27.46,0,0,0-2.29,5.76h-8.3v15.41h8.46a27.68,27.68,0,0,0,2.37,5.53l-6,6,10.9,10.89,6.11-6.11a27.21,27.21,0,0,0,5.44,2.21v8.69h15.41v-8.69a27.3,27.3,0,0,0,5.45-2.21l6.11,6.11L464,298.93l-6-6a27.68,27.68,0,0,0,2.37-5.53Z"/><circle class="cls-6" cx="433.81" cy="279.35" r="14.1"/><circle class="cls-7" cx="433.81" cy="279.67" r="8.73"/><path class="cls-8" d="M139.48,244.17v-8.73h-4.71a14.89,14.89,0,0,0-1.3-3.26l3.29-3.29-6.17-6.18L127.35,226a15.92,15.92,0,0,0-3.32-1.38V220H115.3v4.57A16.06,16.06,0,0,0,112,226l-3.24-3.24-6.17,6.18,3.28,3.29a16,16,0,0,0-1.3,3.26h-4.7v8.73h4.8A15,15,0,0,0,106,247.3l-3.42,3.42,6.17,6.18,3.47-3.47a15.68,15.68,0,0,0,3.08,1.26v4.92H124v-4.92a15.77,15.77,0,0,0,3.09-1.26l3.47,3.47,6.17-6.18-3.42-3.42a15.54,15.54,0,0,0,1.34-3.13Z"/><circle class="cls-6" cx="119.67" cy="239.63" r="7.99"/><circle class="cls-7" cx="119.67" cy="239.81" r="4.95"/><path class="cls-9" d="M157.81,203.26l-1-6.66-3.59.56a12.24,12.24,0,0,0-1.39-2.34l2.12-2.9-5.46-4-2.08,2.86a12.25,12.25,0,0,0-2.7-.66l-.54-3.49-6.67,1.05.55,3.49a11.59,11.59,0,0,0-2.36,1.45l-2.87-2.08-4,5.45,2.9,2.12a12.16,12.16,0,0,0-.6,2.65l-3.59.56,1,6.67,3.66-.58a12.14,12.14,0,0,0,1.4,2.23l-2.2,3,5.45,4,2.23-3.07a11.91,11.91,0,0,0,2.51.59l.59,3.76,6.67-1-.59-3.76a12.83,12.83,0,0,0,2.2-1.32l3.06,2.23,4-5.46-3-2.2a12.21,12.21,0,0,0,.64-2.55Z"/><circle class="cls-6" cx="142.15" cy="202.17" r="6.18"/><circle class="cls-7" cx="142.17" cy="202.31" r="3.82"/><path class="cls-5" d="M169.84,227.69l-3.09-4.3-2.31,1.67a10.15,10.15,0,0,0-1.8-1.15l.45-2.78-5.22-.84-.45,2.74a9.43,9.43,0,0,0-2.12.49l-1.62-2.24-4.29,3.09,1.62,2.25a9.8,9.8,0,0,0-1.14,1.85l-2.74-.44-.84,5.22,2.78.45a10.1,10.1,0,0,0,.51,2.07l-2.31,1.66,3.1,4.3,2.36-1.7a9.57,9.57,0,0,0,1.76,1.06L154,244l5.22.85.47-2.93a9.76,9.76,0,0,0,2-.48l1.74,2.42,4.29-3.09L166,238.33a9.58,9.58,0,0,0,1.07-1.71l2.93.47.85-5.22-2.89-.47a9.52,9.52,0,0,0-.46-2Z"/><circle class="cls-6" cx="158.49" cy="232.47" r="4.84"/><circle class="cls-7" cx="158.56" cy="232.56" r="3"/><rect class="cls-10" x="341.4" y="295.71" width="266.1" height="150.17" rx="13.69"/><path class="cls-11" d="M593.81,295.71H355.09A13.69,13.69,0,0,0,341.4,309.4v.66a13.69,13.69,0,0,1,13.69-13.69H593.81a13.68,13.68,0,0,1,13.69,13.69v-.66A13.68,13.68,0,0,0,593.81,295.71Z"/><rect class="cls-7" x="351.04" y="304.92" width="246.82" height="120.9"/><rect class="cls-12" x="351.04" y="304.92" width="246.82" height="1.12"/><rect class="cls-13" x="351.26" y="434.77" width="38.99" height="7.47"/><rect class="cls-13" x="554.66" y="434.77" width="8.45" height="7.47"/><rect class="cls-13" x="568.31" y="434.77" width="8.45" height="7.47"/><rect class="cls-13" x="581.95" y="434.77" width="8.45" height="7.47"/><rect class="cls-13" x="400.65" y="434.77" width="138.42" height="7.47"/><rect class="cls-13" x="355.76" y="452.71" width="13.1" height="5.13" rx="2.3"/><rect class="cls-13" x="580.05" y="452.71" width="13.1" height="5.13" rx="2.3"/><path class="cls-14" d="M334.83,438.31H614.08a0,0,0,0,1,0,0v6A11.66,11.66,0,0,1,602.42,456H346.49a11.66,11.66,0,0,1-11.66-11.66v-6A0,0,0,0,1,334.83,438.31Z"/><path class="cls-15" d="M433.81,438.31a13,13,0,0,0,11.71,8.09h57.86a13,13,0,0,0,11.72-8.09Z"/><path class="cls-16" d="M433.81,438.31a13,13,0,0,0,11.71,7.37h57.86a13,13,0,0,0,11.72-7.37Z"/><rect class="cls-17" x="334.83" y="438.31" width="279.24" height="0.87"/><rect class="cls-18" x="337.56" y="449.73" width="269.82" height="0.72" rx="0.32"/><rect class="cls-16" x="337.56" y="449.64" width="269.82" height="0.72" rx="0.32"/><rect class="cls-2" x="359.9" y="311.94" width="89.84" height="2.12"/><rect class="cls-2" x="359.9" y="321.31" width="89.84" height="2.12"/><rect class="cls-2" x="359.9" y="330.68" width="89.84" height="2.12"/><rect class="cls-2" x="359.9" y="340.05" width="89.84" height="2.12"/><rect class="cls-2" x="457.17" y="311.94" width="9.2" height="2.12"/><rect class="cls-2" x="409.78" y="358.38" width="71.89" height="2.12"/><rect class="cls-9" x="409.78" y="367.31" width="71.89" height="2.12"/><rect class="cls-9" x="459.17" y="378.04" width="22.5" height="2.12"/><rect class="cls-9" x="459.17" y="385.52" width="22.5" height="2.12"/><rect class="cls-9" x="459.17" y="392.99" width="22.5" height="2.12"/><rect class="cls-8" x="365.38" y="400.46" width="116.29" height="2.12"/><rect class="cls-2" x="474.45" y="311.94" width="9.2" height="2.12"/><rect class="cls-2" x="491.74" y="311.94" width="9.2" height="2.12"/><rect class="cls-2" x="509.03" y="311.94" width="9.2" height="2.12"/><rect class="cls-2" x="495.42" y="326.66" width="84.81" height="84.81"/><path class="cls-3" d="M506.32,401.57a1.38,1.38,0,0,1-1-.42,1.41,1.41,0,0,1,0-2l63.57-63.58a1.41,1.41,0,0,1,2,2l-63.58,63.57A1.37,1.37,0,0,1,506.32,401.57Z"/><path class="cls-3" d="M571.3,400.15a1.41,1.41,0,0,1-2.41,1l-63.57-63.57a1.41,1.41,0,0,1,2-2l63.58,63.58A1.4,1.4,0,0,1,571.3,400.15Z"/><ellipse class="cls-19" cx="538.1" cy="368.6" rx="21.29" ry="21.52"/><circle class="cls-3" cx="538.1" cy="368.37" r="21.29"/><circle class="cls-2" cx="538.1" cy="368.37" r="18.21"/><circle class="cls-7" cx="538.1" cy="368.37" r="10.01"/><rect class="cls-7" x="535.32" y="355.85" width="5.57" height="25.27"/><rect class="cls-7" x="535.32" y="355.85" width="5.57" height="25.27" transform="translate(169.62 906.58) rotate(-90)"/><rect class="cls-7" x="535.32" y="355.85" width="5.57" height="25.27" transform="translate(-102.95 488.42) rotate(-45)"/><rect class="cls-7" x="535.32" y="355.85" width="5.57" height="25.27" transform="translate(658.04 1009.54) rotate(-135)"/><circle class="cls-3" cx="538.1" cy="368.37" r="5.1"/><path class="cls-2" d="M538.1,350.85a18.2,18.2,0,0,1,18.19,17.87c0-.12,0-.23,0-.35a18.21,18.21,0,1,0-36.42,0c0,.12,0,.23,0,.35A18.2,18.2,0,0,1,538.1,350.85Z"/><rect class="cls-8" x="366.95" y="378.37" width="3.8" height="3.8"/><rect class="cls-8" x="366.95" y="385.74" width="3.8" height="3.8"/><rect class="cls-8" x="366.95" y="393.1" width="3.8" height="3.8"/><rect class="cls-8" x="375.4" y="378.37" width="3.8" height="3.8"/><rect class="cls-8" x="383.85" y="378.37" width="3.8" height="3.8"/><circle class="cls-20" cx="362.31" cy="360.21" r="4.36"/><circle class="cls-20" cx="373.22" cy="360.21" r="2.18"/><circle class="cls-20" cx="381.39" cy="360.21" r="2.18"/><circle class="cls-20" cx="389.55" cy="360.21" r="2.18"/><polygon class="cls-5" points="537.58 271.29 537.58 282.8 548.82 271.57 537.58 271.29"/><rect class="cls-5" x="526.63" y="247.13" width="110.52" height="26.84" rx="13.42"/><path class="cls-21" d="M623.73,247.13H540a13.46,13.46,0,0,0-13.41,13.42h0c0,.08,0,.16,0,.24A13.45,13.45,0,0,1,540,247.61h83.69a13.45,13.45,0,0,1,13.4,13.18,1.94,1.94,0,0,0,0-.24h0A13.46,13.46,0,0,0,623.73,247.13Z"/><text class="cls-22" transform="translate(548.21 267.08)">CODE</text><polygon class="cls-7" points="535.19 260.55 543.64 252.09 545.52 253.96 538.92 260.55 545.52 267.14 543.64 269.01 535.19 260.55 535.19 260.55 535.19 260.55"/><polygon class="cls-7" points="627.25 260.55 618.79 252.09 616.92 253.96 623.52 260.55 616.92 267.14 618.79 269.01 627.25 260.55 627.25 260.55 627.25 260.55"/><polygon class="cls-5" points="822.58 185.29 822.58 196.8 833.82 185.57 822.58 185.29"/><rect class="cls-5" x="811.63" y="161.13" width="110.52" height="26.84" rx="13.42"/><path class="cls-21" d="M908.73,161.13H825a13.46,13.46,0,0,0-13.41,13.42h0c0,.08,0,.16,0,.24A13.45,13.45,0,0,1,825,161.61h83.69a13.45,13.45,0,0,1,13.4,13.18,1.94,1.94,0,0,0,0-.24h0A13.46,13.46,0,0,0,908.73,161.13Z"/><text class="cls-22" transform="translate(833.21 181.08)">CODE</text><polygon class="cls-7" points="820.19 174.55 828.64 166.09 830.52 167.96 823.92 174.55 830.52 181.14 828.64 183.01 820.19 174.55 820.19 174.55 820.19 174.55"/><polygon class="cls-7" points="912.25 174.55 903.79 166.09 901.92 167.96 908.52 174.55 901.92 181.14 903.79 183.01 912.25 174.55 912.25 174.55 912.25 174.55"/><rect class="cls-23" x="347.26" y="233.31" width="44.47" height="44.47"/><text class="cls-24" transform="translate(354.3 275.86)">T</text><rect class="cls-23" x="388.83" y="274.88" width="5.79" height="5.79"/><rect class="cls-23" x="388.83" y="230.41" width="5.79" height="5.79"/><rect class="cls-23" x="344.36" y="230.41" width="5.79" height="5.79"/><rect class="cls-23" x="344.36" y="274.88" width="5.79" height="5.79"/><line class="cls-25" x1="350.15" y1="255.54" x2="360.4" y2="255.54"/><rect class="cls-23" x="172.26" y="332.31" width="44.47" height="44.47"/><text class="cls-24" transform="translate(179.3 374.86)">T</text><rect class="cls-23" x="213.83" y="373.88" width="5.79" height="5.79"/><rect class="cls-23" x="213.83" y="329.41" width="5.79" height="5.79"/><rect class="cls-23" x="169.36" y="329.41" width="5.79" height="5.79"/><rect class="cls-23" x="169.36" y="373.88" width="5.79" height="5.79"/><line class="cls-25" x1="175.15" y1="354.54" x2="185.4" y2="354.54"/><rect class="cls-13" x="314.24" y="295.71" width="8.73" height="13.67" rx="3.39"/><rect class="cls-5" x="309.35" y="279.96" width="18.52" height="26.18" rx="7.18"/><circle class="cls-26" cx="318.61" cy="272.44" r="32.06"/><circle class="cls-26" cx="318.61" cy="272.44" r="25.51"/><circle class="cls-9" cx="318.61" cy="272.44" r="21.55"/><path class="cls-27" d="M318.61,251.52a21.55,21.55,0,0,1,21.54,21.23c0-.1,0-.2,0-.31a21.55,21.55,0,1,0-43.1,0c0,.11,0,.21,0,.31A21.54,21.54,0,0,1,318.61,251.52Z"/><rect class="cls-28" x="310.93" y="273.41" width="3.31" height="14.87" rx="1.28" transform="translate(-71.25 109.81) rotate(-17.92)"/><rect class="cls-28" x="322.78" y="273.41" width="3.31" height="14.87" rx="1.28" transform="translate(546.72 647.89) rotate(-162.08)"/><rect class="cls-13" x="714.24" y="428.71" width="8.73" height="13.67" rx="3.39"/><rect class="cls-5" x="709.35" y="412.96" width="18.52" height="26.18" rx="7.18"/><circle class="cls-26" cx="718.61" cy="405.44" r="32.06"/><circle class="cls-26" cx="718.61" cy="405.44" r="25.51"/><circle class="cls-9" cx="718.61" cy="405.44" r="21.55"/><path class="cls-27" d="M718.61,384.52a21.55,21.55,0,0,1,21.54,21.23c0-.1,0-.2,0-.31a21.55,21.55,0,1,0-43.1,0c0,.11,0,.21,0,.31A21.54,21.54,0,0,1,718.61,384.52Z"/><rect class="cls-28" x="710.93" y="406.41" width="3.31" height="14.87" rx="1.28" transform="translate(-92.77 239.35) rotate(-17.92)"/><rect class="cls-28" x="722.78" y="406.41" width="3.31" height="14.87" rx="1.28" transform="translate(1286.38 1030.52) rotate(-162.08)"/><path class="cls-8" d="M357.06,374a35,35,0,1,0-26.48,33.8L348.47,417l-2.7-17.39A34.7,34.7,0,0,0,357.06,374Z"/><path class="cls-29" d="M322.2,339.57a34.86,34.86,0,0,1,34.85,34.62c0-.08,0-.15,0-.22a34.86,34.86,0,0,0-69.72,0c0,.07,0,.15,0,.23A34.86,34.86,0,0,1,322.2,339.57Z"/><polygon class="cls-7" points="295.42 373.83 310 359.25 313.23 362.48 301.86 373.84 313.23 385.2 310 388.43 295.42 373.85 295.42 373.84 295.42 373.83"/><polygon class="cls-7" points="348.99 373.83 334.4 359.25 331.18 362.48 342.54 373.84 331.18 385.2 334.4 388.43 348.99 373.85 348.98 373.84 348.99 373.83"/><polygon class="cls-2" points="328.75 388.52 323.73 388.52 316.04 359.15 321.06 359.15 328.75 388.52"/><path class="cls-9" d="M586.18,334.56a25.88,25.88,0,1,1,25.88,25.88,25.54,25.54,0,0,1-6.22-.79l-13.28,6.84,2-12.91A25.77,25.77,0,0,1,586.18,334.56Z"/><path class="cls-30" d="M612.06,309a25.89,25.89,0,0,0-25.88,25.71v-.17a25.88,25.88,0,0,1,51.76,0v.18A25.88,25.88,0,0,0,612.06,309Z"/><polygon class="cls-8" points="631.95 334.46 621.12 323.63 618.73 326.02 627.16 334.46 618.73 342.9 621.12 345.29 631.95 334.46 631.94 334.46 631.95 334.46"/><polygon class="cls-8" points="592.17 334.46 603 323.63 605.39 326.02 596.96 334.46 605.39 342.9 603 345.29 592.17 334.46 592.18 334.46 592.17 334.46"/><polygon class="cls-7" points="616.64 345.37 612.91 345.37 607.2 323.56 610.92 323.56 616.64 345.37"/><path class="cls-9" d="M517.61,280.34l-7.87,1.49a5.28,5.28,0,0,0,.24-1.49v-21a5.33,5.33,0,0,0-5.33-5.33H490.41a5.33,5.33,0,0,0-5.32,5.33v21a5.27,5.27,0,0,0,.23,1.49l-7.87-1.49a2.11,2.11,0,0,0-2.06,3.35l20.47,26.8a2.1,2.1,0,0,0,3.34,0l20.47-26.8A2.11,2.11,0,0,0,517.61,280.34Z"/><path class="cls-8" d="M510,276.87l-33,8.85,3.76,4.93,38.06-10.2a2,2,0,0,0-1.16-.11l-7.87,1.49a5.28,5.28,0,0,0,.24-1.49Z"/><path class="cls-8" d="M485.09,266.71,510,260v-.75a5.3,5.3,0,0,0-2.52-4.51l-22.37,6Z"/><polygon class="cls-8" points="484.16 295.17 487.93 300.1 512.09 293.62 517.79 286.16 484.16 295.17"/><polygon class="cls-8" points="501.15 307.94 506.85 300.47 491.38 304.62 495.14 309.55 501.15 307.94"/><polygon class="cls-8" points="485.08 272.16 485.08 278.1 509.98 271.42 509.98 265.48 485.08 272.16"/><path class="cls-31" d="M476.79,280.32a1.82,1.82,0,0,0-.52.14Z"/><path class="cls-32" d="M509.74,282.49l7.87-1.48a2.09,2.09,0,0,1,2.47,1.75,2.11,2.11,0,0,0-2.47-2.42l-7.7,1.46C509.86,282,509.81,282.26,509.74,282.49Z"/><path class="cls-32" d="M490.41,254.62h14.24A5.33,5.33,0,0,1,510,260v-.66a5.33,5.33,0,0,0-5.33-5.33H490.41a5.33,5.33,0,0,0-5.32,5.33V260A5.33,5.33,0,0,1,490.41,254.62Z"/><path class="cls-32" d="M477.45,281l7.87,1.48a5.73,5.73,0,0,1-.16-.69l-7.71-1.46a2.11,2.11,0,0,0-2.47,2.42A2.1,2.1,0,0,1,477.45,281Z"/><path class="cls-5" d="M613.8,229.87V224h3.14a10.9,10.9,0,0,1,.87-2.18l-2.2-2.2,4.14-4.13,2.16,2.16a10.29,10.29,0,0,1,2.22-.92v-3.06H630v3.06a10.09,10.09,0,0,1,2.22.92l2.17-2.16,4.13,4.13-2.2,2.2a10.34,10.34,0,0,1,.87,2.18h3.15v5.85H637.1a10.46,10.46,0,0,1-.9,2.09l2.29,2.29-4.13,4.13L632,236.06a10.44,10.44,0,0,1-2.07.84v3.3h-5.84v-3.3a10.69,10.69,0,0,1-2.07-.84l-2.31,2.32-4.14-4.13L617.9,232a10.43,10.43,0,0,1-.89-2.09Z"/><circle class="cls-6" cx="627.05" cy="226.82" r="6.47"/><circle class="cls-7" cx="627.05" cy="226.97" r="4.01"/><path class="cls-5" d="M638.7,213v-3.75h2a6.79,6.79,0,0,1,.55-1.4l-1.41-1.41,2.65-2.65,1.4,1.39a6.88,6.88,0,0,1,1.42-.6v-2h3.74v2a7.21,7.21,0,0,1,1.43.6l1.39-1.39,2.65,2.65-1.41,1.41a6.79,6.79,0,0,1,.55,1.4h2V213h-2.06a6.35,6.35,0,0,1-.57,1.34l1.47,1.47-2.65,2.65L650.4,217a6.18,6.18,0,0,1-1.33.54v2.12h-3.74v-2.12A6.18,6.18,0,0,1,644,217l-1.49,1.49-2.65-2.65,1.47-1.47a6.35,6.35,0,0,1-.57-1.34Z"/><circle class="cls-6" cx="647.2" cy="211.06" r="4.15"/><circle class="cls-7" cx="647.2" cy="211.15" r="2.57"/><rect class="cls-33" x="482.49" y="138.49" width="163.64" height="87.17" rx="8.36"/><path class="cls-6" d="M646.12,162a522.72,522.72,0,0,0-163.63,0v-7.79a523.32,523.32,0,0,1,163.63,0Z"/><rect class="cls-5" x="482.49" y="138.49" width="163.64" height="15.68"/><rect class="cls-5" x="482.49" y="138.49" width="163.64" height="15.68"/><rect class="cls-34" x="482.49" y="138.49" width="163.64" height="0.71"/><rect class="cls-8" x="487.74" y="143.94" width="13.16" height="4.78" rx="2.39"/><rect class="cls-9" x="506.23" y="143.94" width="13.16" height="4.78" rx="2.39"/><rect class="cls-7" x="524.6" y="143.94" width="13.16" height="4.78" rx="2.39"/><rect class="cls-9" x="489.74" y="162.91" width="62.73" height="1.76"/><rect class="cls-9" x="489.74" y="170.31" width="62.73" height="1.76"/><rect class="cls-9" x="489.74" y="177.71" width="135.51" height="1.76"/><rect class="cls-9" x="575.38" y="186.52" width="60.57" height="20.36"/><rect class="cls-9" x="575.38" y="214.16" width="60.57" height="4.78"/><rect class="cls-9" x="530.19" y="161.1" width="1" height="80.1" transform="translate(149.52 621.63) rotate(-68.56)"/><rect class="cls-9" x="490.64" y="200.65" width="80.1" height="1" transform="translate(-36.8 207.78) rotate(-21.43)"/><rect class="cls-35" x="557.5" y="162.91" width="77.65" height="9.16"/><rect class="cls-36" x="469.13" y="132.53" width="193.18" height="99.08"/><rect class="cls-36" x="655.86" y="225.17" width="12.9" height="12.9"/><rect class="cls-36" x="655.86" y="126.08" width="12.9" height="12.9"/><rect class="cls-36" x="462.68" y="126.08" width="12.9" height="12.9"/><rect class="cls-36" x="462.68" y="225.17" width="12.9" height="12.9"/><rect class="cls-33" x="184.55" y="46.9" width="128.45" height="68.42" rx="8.36"/><path class="cls-6" d="M313,65.32a411.06,411.06,0,0,0-128.44,0V59.21a411.06,411.06,0,0,1,128.44,0Z"/><rect class="cls-5" x="184.55" y="46.9" width="128.45" height="12.31"/><rect class="cls-5" x="184.55" y="46.9" width="128.45" height="12.31"/><rect class="cls-34" x="184.55" y="46.9" width="128.45" height="0.55"/><rect class="cls-8" x="188.67" y="51.18" width="10.33" height="3.75" rx="1.88"/><rect class="cls-9" x="203.18" y="51.18" width="10.33" height="3.75" rx="1.88"/><rect class="cls-7" x="217.6" y="51.18" width="10.33" height="3.75" rx="1.88"/><rect class="cls-9" x="190.24" y="66.07" width="49.24" height="1.38"/><rect class="cls-9" x="190.24" y="71.88" width="49.24" height="1.38"/><rect class="cls-9" x="190.24" y="77.69" width="106.37" height="1.38"/><rect class="cls-9" x="257.46" y="84.6" width="47.54" height="15.98"/><rect class="cls-9" x="257.46" y="106.3" width="47.54" height="3.75"/><rect class="cls-9" x="221.99" y="64.65" width="0.78" height="62.88" transform="translate(51.67 267.98) rotate(-68.56)"/><rect class="cls-9" x="190.95" y="95.7" width="62.88" height="0.78" transform="translate(-19.73 87.88) rotate(-21.43)"/><rect class="cls-35" x="243.42" y="66.07" width="60.95" height="7.19"/><rect class="cls-36" x="174.06" y="42.23" width="151.63" height="77.78"/><rect class="cls-36" x="320.63" y="114.94" width="10.13" height="10.13"/><rect class="cls-36" x="320.63" y="37.17" width="10.13" height="10.13"/><rect class="cls-36" x="169" y="37.17" width="10.13" height="10.13"/><rect class="cls-36" x="169" y="114.94" width="10.13" height="10.13"/><path class="cls-5" d="M651.17,234.07v-4.91h2.65a8.32,8.32,0,0,1,.73-1.83l-1.85-1.85,3.47-3.47,1.82,1.82a8.79,8.79,0,0,1,1.87-.78v-2.57h4.91v2.57a8.93,8.93,0,0,1,1.86.78l1.82-1.82,3.47,3.47-1.85,1.85a8.32,8.32,0,0,1,.73,1.83h2.65v4.91h-2.7a8.88,8.88,0,0,1-.75,1.76l1.92,1.93-3.47,3.47-2-1.95a8.71,8.71,0,0,1-1.73.7v2.77h-4.91V240a8.79,8.79,0,0,1-1.74-.7l-2,1.95-3.47-3.47,1.92-1.93a8.88,8.88,0,0,1-.75-1.76Z"/><circle class="cls-6" cx="662.31" cy="231.52" r="4.49"/><circle class="cls-7" cx="662.31" cy="231.62" r="2.78"/><path class="cls-5" d="M484.65,234.65v-6.27h-3.38a11.39,11.39,0,0,0-.93-2.35l2.36-2.36-4.44-4.44-2.33,2.33a11,11,0,0,0-2.37-1v-3.29h-6.28v3.29a11.07,11.07,0,0,0-2.38,1l-2.33-2.33-4.43,4.44L460.5,226a10.86,10.86,0,0,0-.93,2.35h-3.38v6.27h3.44a11.54,11.54,0,0,0,1,2.25l-2.45,2.46,4.43,4.44,2.49-2.49a12.29,12.29,0,0,0,2.22.9v3.54h6.28v-3.54a11.9,11.9,0,0,0,2.21-.9l2.49,2.49,4.44-4.44-2.46-2.46a10.44,10.44,0,0,0,1-2.25Z"/><circle class="cls-6" cx="470.42" cy="231.39" r="6.95"/><circle class="cls-7" cx="470.42" cy="231.54" r="4.3"/><path class="cls-5" d="M451.42,219.3v-4h-2.16a7.83,7.83,0,0,0-.6-1.5l1.51-1.52-2.84-2.84-1.5,1.49a7.08,7.08,0,0,0-1.52-.64v-2.1h-4v2.1a7.53,7.53,0,0,0-1.52.64l-1.49-1.49-2.85,2.84,1.51,1.52a7.2,7.2,0,0,0-.59,1.5h-2.17v4h2.21a6.8,6.8,0,0,0,.62,1.44l-1.58,1.58,2.85,2.84,1.59-1.6a6.73,6.73,0,0,0,1.42.58v2.27h4v-2.27a6.52,6.52,0,0,0,1.42-.58l1.6,1.6,2.84-2.84-1.57-1.58a8,8,0,0,0,.62-1.44Z"/><circle class="cls-6" cx="442.3" cy="217.2" r="4.46"/><circle class="cls-7" cx="442.3" cy="217.3" r="2.76"/><path class="cls-5" d="M344.65,147.65v-6.27h-3.38a11.39,11.39,0,0,0-.93-2.35l2.36-2.36-4.44-4.44-2.33,2.33a11,11,0,0,0-2.37-1v-3.29h-6.28v3.29a11.07,11.07,0,0,0-2.38,1l-2.33-2.33-4.43,4.44L320.5,139a10.86,10.86,0,0,0-.93,2.35h-3.38v6.27h3.44a11.54,11.54,0,0,0,1,2.25l-2.45,2.46,4.43,4.44,2.49-2.49a12.29,12.29,0,0,0,2.22.9v3.54h6.28v-3.54a11.9,11.9,0,0,0,2.21-.9l2.49,2.49,4.44-4.44-2.46-2.46a10.44,10.44,0,0,0,1-2.25Z"/><circle class="cls-6" cx="330.42" cy="144.39" r="6.95"/><circle class="cls-7" cx="330.42" cy="144.54" r="4.3"/><path class="cls-5" d="M311.42,132.3v-4h-2.16a7.83,7.83,0,0,0-.6-1.5l1.51-1.52-2.84-2.84-1.5,1.49a7.08,7.08,0,0,0-1.52-.64v-2.1h-4v2.1a7.53,7.53,0,0,0-1.52.64l-1.49-1.49-2.85,2.84,1.51,1.52a7.2,7.2,0,0,0-.59,1.5h-2.17v4h2.21a6.8,6.8,0,0,0,.62,1.44l-1.58,1.58,2.85,2.84,1.59-1.6a6.73,6.73,0,0,0,1.42.58v2.27h4v-2.27a6.52,6.52,0,0,0,1.42-.58l1.6,1.6,2.84-2.84-1.57-1.58a8,8,0,0,0,.62-1.44Z"/><circle class="cls-6" cx="302.3" cy="130.2" r="4.46"/><circle class="cls-7" cx="302.3" cy="130.3" r="2.76"/><rect class="cls-37" x="415.23" y="190.18" width="41.78" height="41.78"/><rect class="cls-37" x="454.29" y="229.24" width="5.44" height="5.44"/><rect class="cls-37" x="454.29" y="187.46" width="5.44" height="5.44"/><rect class="cls-37" x="412.51" y="187.46" width="5.44" height="5.44"/><rect class="cls-37" x="412.51" y="229.24" width="5.44" height="5.44"/><rect class="cls-37" x="449.19" y="172.17" width="28.56" height="28.56"/><rect class="cls-37" x="475.89" y="198.87" width="3.72" height="3.72"/><rect class="cls-37" x="475.89" y="170.31" width="3.72" height="3.72"/><rect class="cls-37" x="447.33" y="170.31" width="3.72" height="3.72"/><rect class="cls-37" x="447.33" y="198.87" width="3.72" height="3.72"/><rect class="cls-37" x="641.22" y="97.11" width="64.75" height="64.75"/><rect class="cls-37" x="701.75" y="157.65" width="8.43" height="8.43"/><rect class="cls-37" x="701.75" y="92.9" width="8.43" height="8.43"/><rect class="cls-37" x="637" y="92.9" width="8.43" height="8.43"/><rect class="cls-37" x="637" y="157.65" width="8.43" height="8.43"/><rect class="cls-37" x="693.85" y="69.19" width="44.27" height="44.27"/><rect class="cls-37" x="735.24" y="110.58" width="5.76" height="5.76"/><rect class="cls-37" x="735.24" y="66.31" width="5.76" height="5.76"/><rect class="cls-37" x="690.96" y="66.31" width="5.76" height="5.76"/><rect class="cls-37" x="690.96" y="110.58" width="5.76" height="5.76"/><path class="cls-7" d="M399.62,221H350.56a5.27,5.27,0,0,1-5.27-5.27V119a5.28,5.28,0,0,1,5.27-5.28h53.35c-1.65,3.87,1,2.37,1,5.28v96.78A5.27,5.27,0,0,1,399.62,221Z"/><rect class="cls-5" x="373.98" y="148.17" width="6.18" height="37.27"/><rect class="cls-5" x="383.26" y="160.57" width="3.09" height="24.87"/><rect class="cls-5" x="388.83" y="160.57" width="3.09" height="24.87"/><rect class="cls-5" x="394.4" y="160.57" width="3.09" height="24.87"/><rect class="cls-8" x="351.04" y="144.77" width="16.13" height="4.07"/><rect class="cls-8" x="351.04" y="153.92" width="16.13" height="4.07"/><rect class="cls-8" x="351.04" y="163.07" width="16.13" height="4.07"/><rect class="cls-8" x="351.04" y="172.22" width="16.13" height="4.07"/><rect class="cls-8" x="351.04" y="181.37" width="16.13" height="4.07"/><path class="cls-6" d="M404.9,128.52c-34.2-5.42-25.41-5.42-59.61,0v-4.91c34.2-5.42,25.41-5.42,59.61,0Z"/><rect class="cls-5" x="345.29" y="113.71" width="59.61" height="9.89"/><rect class="cls-5" x="345.29" y="113.71" width="59.61" height="9.89"/><rect class="cls-34" x="345.29" y="113.71" width="59.61" height="0.45"/><rect class="cls-8" x="348.6" y="117.15" width="8.3" height="3.01" rx="1.51"/><rect class="cls-38" x="360.27" y="117.15" width="8.3" height="3.01" rx="1.51"/><rect class="cls-7" x="371.86" y="117.15" width="8.3" height="3.01" rx="1.51"/><rect class="cls-38" x="349.86" y="129.12" width="39.58" height="1.11"/><rect class="cls-38" x="349.86" y="133.79" width="39.58" height="1.11"/><rect class="cls-38" x="349.86" y="138.45" width="46.16" height="1.11"/><rect class="cls-35" x="375.38" y="180.31" width="0.63" height="50.54" transform="translate(47.04 480.17) rotate(-68.56)"/><rect class="cls-35" x="350.43" y="205.27" width="50.54" height="0.63" transform="translate(-49.13 151.46) rotate(-21.43)"/><rect class="cls-39" x="392.61" y="129.12" width="9.65" height="5.78"/><rect class="cls-38" x="351.04" y="188.95" width="46.39" height="1.75"/><path class="cls-7" d="M831.62,308H782.56a5.27,5.27,0,0,1-5.27-5.27V206a5.28,5.28,0,0,1,5.27-5.28h53.35c-1.65,3.87,1,2.37,1,5.28v96.78A5.27,5.27,0,0,1,831.62,308Z"/><rect class="cls-5" x="805.98" y="235.17" width="6.18" height="37.27"/><rect class="cls-5" x="815.26" y="247.57" width="3.09" height="24.87"/><rect class="cls-5" x="820.83" y="247.57" width="3.09" height="24.87"/><rect class="cls-5" x="826.4" y="247.57" width="3.09" height="24.87"/><rect class="cls-8" x="783.04" y="231.77" width="16.13" height="4.07"/><rect class="cls-8" x="783.04" y="240.92" width="16.13" height="4.07"/><rect class="cls-8" x="783.04" y="250.07" width="16.13" height="4.07"/><rect class="cls-8" x="783.04" y="259.22" width="16.13" height="4.07"/><rect class="cls-8" x="783.04" y="268.37" width="16.13" height="4.07"/><path class="cls-6" d="M836.9,215.52c-34.2-5.42-25.41-5.42-59.61,0v-4.91c34.2-5.42,25.41-5.42,59.61,0Z"/><rect class="cls-5" x="777.29" y="200.71" width="59.61" height="9.89"/><rect class="cls-5" x="777.29" y="200.71" width="59.61" height="9.89"/><rect class="cls-34" x="777.29" y="200.71" width="59.61" height="0.45"/><rect class="cls-8" x="780.6" y="204.15" width="8.3" height="3.01" rx="1.51"/><rect class="cls-38" x="792.27" y="204.15" width="8.3" height="3.01" rx="1.51"/><rect class="cls-7" x="803.86" y="204.15" width="8.3" height="3.01" rx="1.51"/><rect class="cls-38" x="781.86" y="216.12" width="39.58" height="1.11"/><rect class="cls-38" x="781.86" y="220.79" width="39.58" height="1.11"/><rect class="cls-38" x="781.86" y="225.45" width="46.16" height="1.11"/><rect class="cls-35" x="807.38" y="267.31" width="0.63" height="50.54" transform="translate(240.19 937.49) rotate(-68.56)"/><rect class="cls-35" x="782.43" y="292.27" width="50.54" height="0.63" transform="translate(-51.06 315.29) rotate(-21.43)"/><rect class="cls-39" x="824.61" y="216.12" width="9.65" height="5.78"/><rect class="cls-38" x="783.04" y="275.95" width="46.39" height="1.75"/><polygon class="cls-8" points="485.57 115.14 485.57 122.77 478.12 115.32 485.57 115.14"/><rect class="cls-8" x="419.54" y="99.11" width="73.29" height="17.8" rx="8.9" transform="translate(912.37 216.03) rotate(180)"/><circle class="cls-8" cx="497.57" cy="115.09" r="2.74"/><circle class="cls-8" cx="506.23" cy="115.09" r="2.74"/><circle class="cls-8" cx="514.89" cy="115.09" r="2.74"/><path class="cls-40" d="M428.44,99.11h55.5a8.92,8.92,0,0,1,8.89,8.9h0v.16a8.92,8.92,0,0,0-8.89-8.74h-55.5a8.92,8.92,0,0,0-8.89,8.74s0-.1,0-.16h0A8.93,8.93,0,0,1,428.44,99.11Z"/><text class="cls-41" transform="translate(434.87 112.35)">CODE</text><polygon class="cls-9" points="486.72 108.01 481.11 102.4 479.87 103.64 484.24 108.01 479.87 112.39 481.11 113.63 486.72 108.02 486.71 108.01 486.72 108.01"/><polygon class="cls-9" points="425.66 108.01 431.27 102.4 432.51 103.64 428.14 108.01 432.51 112.39 431.27 113.63 425.66 108.02 425.66 108.01 425.66 108.01"/><polygon class="cls-9" points="352.79 210.41 352.79 216.77 346.58 210.56 352.79 210.41"/><rect class="cls-9" x="297.73" y="197.04" width="61.12" height="14.84" rx="7.42" transform="translate(656.57 408.92) rotate(-180)"/><path class="cls-42" d="M305.15,197h46.28a7.44,7.44,0,0,1,7.42,7.42h0s0,.09,0,.14a7.44,7.44,0,0,0-7.41-7.29H305.15a7.44,7.44,0,0,0-7.42,7.29v-.14h0A7.44,7.44,0,0,1,305.15,197Z"/><text class="cls-43" transform="translate(310.88 208.08)">CODE</text><polygon class="cls-8" points="354.12 204.46 349.44 199.78 348.4 200.82 352.05 204.46 348.4 208.11 349.44 209.14 354.12 204.46 354.11 204.46 354.12 204.46"/><polygon class="cls-8" points="303.2 204.46 307.88 199.78 308.91 200.82 305.26 204.46 308.91 208.11 307.88 209.14 303.2 204.46 303.2 204.46 303.2 204.46"/><polygon class="cls-9" points="556.11 277.01 558.3 281.45 563.2 282.17 559.65 285.63 560.49 290.51 556.11 288.2 551.72 290.51 552.56 285.63 549.01 282.17 553.91 281.45 556.11 277.01"/><polygon class="cls-9" points="553.91 281.7 556.11 277.26 558.3 281.7 562.98 282.38 563.2 282.17 558.3 281.45 556.11 277.01 553.91 281.45 549.01 282.17 549.23 282.38 553.91 281.7"/><polygon class="cls-9" points="552.52 285.84 551.72 290.51 551.77 290.48 552.56 285.87 552.52 285.84"/><polygon class="cls-9" points="559.65 285.87 560.44 290.48 560.49 290.51 559.69 285.84 559.65 285.87"/><polygon class="cls-9" points="577.93 277.01 580.12 281.45 585.03 282.17 581.48 285.63 582.32 290.51 577.93 288.2 573.55 290.51 574.38 285.63 570.84 282.17 575.74 281.45 577.93 277.01"/><polygon class="cls-9" points="575.74 281.7 577.93 277.26 580.12 281.7 584.8 282.38 585.03 282.17 580.12 281.45 577.93 277.01 575.74 281.45 570.84 282.17 571.06 282.38 575.74 281.7"/><polygon class="cls-9" points="574.35 285.84 573.55 290.51 573.59 290.48 574.38 285.87 574.35 285.84"/><polygon class="cls-9" points="581.48 285.87 582.27 290.48 582.32 290.51 581.52 285.84 581.48 285.87"/><polygon class="cls-9" points="599.76 277.01 601.95 281.45 606.85 282.17 603.3 285.63 604.14 290.51 599.76 288.2 595.37 290.51 596.21 285.63 592.66 282.17 597.56 281.45 599.76 277.01"/><polygon class="cls-9" points="597.56 281.7 599.76 277.26 601.95 281.7 606.63 282.38 606.85 282.17 601.95 281.45 599.76 277.01 597.56 281.45 592.66 282.17 592.88 282.38 597.56 281.7"/><polygon class="cls-9" points="596.17 285.84 595.37 290.51 595.42 290.48 596.21 285.87 596.17 285.84"/><polygon class="cls-9" points="603.3 285.87 604.1 290.48 604.14 290.51 603.34 285.84 603.3 285.87"/><polygon class="cls-9" points="621.58 277.01 623.77 281.45 628.68 282.17 625.13 285.63 625.97 290.51 621.58 288.2 617.2 290.51 618.03 285.63 614.49 282.17 619.39 281.45 621.58 277.01"/><polygon class="cls-9" points="619.39 281.7 621.58 277.26 623.77 281.7 628.46 282.38 628.68 282.17 623.77 281.45 621.58 277.01 619.39 281.45 614.49 282.17 614.71 282.38 619.39 281.7"/><polygon class="cls-9" points="618 285.84 617.2 290.51 617.24 290.48 618.03 285.87 618 285.84"/><polygon class="cls-9" points="625.13 285.87 625.92 290.48 625.97 290.51 625.17 285.84 625.13 285.87"/><path class="cls-9" d="M765.28,78.56l-10,1.89a6.61,6.61,0,0,0,.3-1.89V51.74A6.79,6.79,0,0,0,748.78,45H730.64a6.78,6.78,0,0,0-6.78,6.78V78.56a6.61,6.61,0,0,0,.3,1.89l-10-1.89a2.68,2.68,0,0,0-2.63,4.26L737.58,117a2.69,2.69,0,0,0,4.26,0l26.07-34.13A2.68,2.68,0,0,0,765.28,78.56Z"/><path class="cls-8" d="M755.56,74.13,713.49,85.41l4.8,6.28,48.46-13a2.66,2.66,0,0,0-1.47-.13l-10,1.89a6.61,6.61,0,0,0,.3-1.89Z"/><path class="cls-8" d="M723.86,61.2l31.7-8.5v-1A6.76,6.76,0,0,0,752.35,46l-28.49,7.64Z"/><polygon class="cls-8" points="722.68 97.44 727.48 103.72 758.24 95.47 765.51 85.96 722.68 97.44"/><polygon class="cls-8" points="744.32 113.7 751.58 104.19 731.87 109.48 736.67 115.75 744.32 113.7"/><polygon class="cls-8" points="723.86 68.14 723.86 75.7 755.56 67.2 755.56 59.63 723.86 68.14"/><path class="cls-31" d="M713.29,78.53a2.55,2.55,0,0,0-.67.18Z"/></g></g></svg>